<?xml version="1.0" standalone="no"?>
<!DOCTYPE svg PUBLIC "-//W3C//DTD SVG 20010904//EN"
 "http://www.w3.org/TR/2001/REC-SVG-20010904/DTD/svg10.dtd">
<svg version="1.0" xmlns="http://www.w3.org/2000/svg"
 width="462.000000pt" height="464.000000pt" viewBox="0 0 462.000000 464.000000"
 preserveAspectRatio="xMidYMid meet">

<g transform="translate(0.000000,464.000000) scale(0.100000,-0.100000)"
fill="#000000" stroke="none">
<path d="M2075 4548 c-861 -86 -1609 -689 -1881 -1515 -384 -1167 249 -2426
1413 -2809 1057 -348 2201 132 2693 1131 414 838 256 1848 -393 2522 -474 492
-1151 740 -1832 671z m-390 -1169 c130 -18 225 -46 335 -100 90 -45 117 -64
190 -138 65 -65 95 -104 122 -161 58 -120 72 -185 72 -340 -2 -295 -89 -481
-474 -1005 -80 -110 -160 -220 -177 -245 -87 -128 -97 -202 -32 -235 91 -48
270 22 507 199 140 104 419 384 556 556 255 322 510 735 672 1090 31 69 60
129 64 134 11 11 80 -15 80 -30 0 -28 -105 -328 -176 -503 -105 -258 -222
-505 -358 -754 -229 -421 -273 -546 -210 -596 101 -79 402 77 675 350 187 186
321 376 451 637 l82 162 -32 93 c-58 173 -63 347 -13 446 26 50 43 63 96 69
90 10 139 -63 138 -203 -2 -155 -61 -343 -193 -610 -142 -287 -271 -466 -492
-680 -195 -191 -383 -317 -532 -360 -79 -23 -195 -17 -253 13 -156 80 -132
313 67 662 l31 55 -33 -40 c-247 -298 -453 -493 -679 -642 -252 -165 -437
-198 -548 -98 -43 39 -61 88 -61 167 0 115 48 220 197 428 303 425 396 568
459 706 54 119 76 201 77 289 1 162 -47 282 -162 395 -88 88 -171 135 -306
176 -123 36 -361 45 -516 19 -371 -62 -655 -258 -788 -546 -57 -124 -75 -203
-75 -344 0 -103 4 -130 26 -191 60 -168 174 -275 341 -320 70 -19 238 -18 312
1 235 61 431 241 567 521 l44 90 32 -10 c17 -6 34 -14 37 -18 11 -10 -79 -192
-141 -286 -110 -164 -233 -274 -389 -347 -124 -59 -198 -76 -351 -82 -228 -9
-352 33 -484 166 -82 82 -125 158 -156 272 -26 95 -23 307 5 414 64 243 218
436 461 580 273 161 634 236 935 194z"/>
<path d="M4093 2883 c-11 -25 -17 -67 -17 -123 -1 -82 19 -206 34 -215 12 -8
51 164 56 245 5 81 -7 122 -39 128 -12 3 -22 -8 -34 -35z"/>
</g>
</svg>
